mtllib materials.mtl
v 0.1215203 0.2294242 -0.2376677
v 0.1215203 0.2294242 0.2323323
v 0.2815203 -0.1605754 0.2123322
v 0.2815203 -0.1605754 -0.2576678
v 0.4815203 -0.1705756 0.2223321
v 0.4115203 0.2394242 0.2223323
v 0.3699961 0.1597803 0.1415159
v 0.4159231 -0.109221 0.1415156
v 0.4815203 -0.1705756 -0.2476678
v 0.4115203 0.2394242 -0.2476677
v 0.3699961 0.1597803 -0.1668513
v 0.4159231 -0.109221 -0.1668513
v -0.2784795 -0.1805754 -0.2476678
v -0.2784795 -0.1805754 0.2223322
v -0.1184796 0.2094243 0.2423322
v -0.1184796 0.2094243 -0.2276678
v -0.4784795 -0.1905756 -0.2376678
v -0.4084795 0.2194242 -0.2376678
v -0.3700364 0.1403065 -0.1568513
v -0.4159634 -0.1286941 -0.1568513
v -0.4784795 -0.1905756 0.2323322
v -0.4084795 0.2194242 0.2323322
v -0.3700363 0.1403065 0.1515157
v -0.4159636 -0.1286941 0.1515157
v 0.5515203 -0.2405753 -0.3276679
v 0.5515205 -0.1605754 -0.327668
v 0.3940205 -0.1605754 -0.3276681
v 0.3940205 -0.1605754 0.3023324
v 0.5515205 -0.1605754 0.3023323
v 0.5515204 -0.2405753 0.3023322
v -0.5484799 -0.2505755 -0.3176679
v -0.5484799 -0.2505755 0.3123323
v -0.3909802 -0.1786785 -0.3163143
v -0.3610551 -0.1686783 -0.2564644
v -0.4886305 -0.1786785 -0.2564642
v -0.5468549 -0.1803041 -0.160168
v -0.5468547 -0.1803041 -0.002667785
v -0.5468549 -0.1803041 0.1548324
v -0.5468546 -0.1803041 0.3123325
v 0.5515206 -0.1605754 0.1448322
v 0.5515205 -0.1605754 -0.01266792
v 0.5515205 -0.1605754 -0.170168
v 0.4916705 -0.1505752 -0.1402431
v 0.4916705 -0.1505752 -0.2678182
v 0.3640955 -0.1505752 0.2424823
v 0.4916705 -0.1505752 0.2424822
v -0.4870046 -0.1703038 0.2524824
v -0.2334799 -0.1686783 -0.2564643
v -0.4870047 -0.1703038 -0.130243
v -0.4870047 -0.1703038 -0.002667874
v -0.4886305 -0.1705756 0.1249073
v -0.2334799 -0.1786785 -0.3163142
v -0.07660494 -0.1741529 -0.3191528
v -0.08408625 -0.1641526 -0.2593029
v 0.3640954 -0.1505752 -0.2678183
v 0.4916706 -0.1505752 0.1149071
v 0.4916705 -0.1505752 -0.01266804
v -0.2334798 -0.1819296 0.3104354
v -0.3909799 -0.1819296 0.3104355
v -0.3610549 -0.1719294 0.2505854
v -0.2334798 -0.1719294 0.2505853
v 0.2371454 -0.1659141 0.3043582
v 0.2147017 -0.1559138 0.2445081
v -0.5384805 -0.1886787 -0.3163142
v 0.06530782 -0.1612525 0.2465338
v -0.0840861 -0.1665912 0.2485596
v -0.07660482 -0.1765909 0.3084097
v 0.0802703 -0.1712527 0.3063839
v 0.06530768 -0.1596265 -0.2621413
v 0.2147015 -0.1551008 -0.2649799
v 0.2371454 -0.1651011 -0.3248298
v 0.08027027 -0.1696267 -0.3219913
v 0.1615917 0.001356125 0.04319349
v 0.1862083 0.03017282 0.07580692
v 0.211776 0.0509181 0.03817824
v 0.1871594 0.02210164 0.005564809
v 0.1263736 0.0365591 0.0386717
v 0.1519413 0.05730438 0.001043022
v 0.1765578 0.08612108 0.03365645
v 0.1509901 0.06537557 0.07128513
v -0.1132818 -0.01108217 -0.01149535
v -0.1025046 0.0205965 0.02565739
v -0.07236687 0.0462141 -0.004927814
v -0.083144 0.01453543 -0.04208058
v -0.1516949 0.01790428 -0.02506804
v -0.1215571 0.04352188 -0.05565327
v -0.11078 0.07520056 -0.01850051
v -0.1409177 0.04958296 0.01208469
v -0.1528872 0.005878687 0.02556345
v -0.1488529 0.03208041 0.06795669
v -0.1602629 0.07396817 0.04315299
v -0.1642971 0.04776645 0.0007597506
v -0.2014005 -0.0017941 0.03492236
v -0.2128104 0.04009366 0.01011866
v -0.2087762 0.06629539 0.0525119
v -0.1973662 0.02440763 0.0773156
v -0.3536522 0.01942444 0.152332
v -0.3536522 0.1068382 0.1289096
v 0.3663479 0.106838 0.12891
v 0.3663478 0.0194242 0.1523324
v -0.3536521 0.1708295 0.06491831
v 0.366348 0.1708293 0.0649187
v -0.3536521 0.194252 -0.02249545
v 0.366348 0.194252 -0.02249506
v -0.353652 0.1708298 -0.1099092
v 0.3663481 0.1708295 -0.1099088
v -0.353652 0.1068385 -0.1739005
v 0.3663481 0.1068382 -0.1739002
v -0.353652 0.01942468 -0.1973231
v 0.3663481 0.01942444 -0.1973227
v -0.353652 -0.06798935 -0.1739007
v 0.3663481 -0.06798935 -0.1739002
v -0.3536521 -0.1319804 -0.1099094
v 0.366348 -0.1319809 -0.109909
v -0.3536521 -0.1554031 -0.02249563
v 0.366348 -0.1554031 -0.02249524
v -0.3536522 -0.1319804 0.06491816
v 0.3663479 -0.1319809 0.06491855
v -0.3536522 -0.06798935 0.1289095
v 0.3663479 -0.06798935 0.1289099
v 0.3327704 -0.01557565 0.1223323
v 0.3327704 -0.07807541 0.1055855
v -0.3772297 -0.07807541 0.1055852
v -0.3772297 -0.01557541 0.1223321
v 0.3327704 -0.1238289 0.0598323
v -0.3772297 -0.1238284 0.05983204
v 0.3327704 -0.1405754 -0.002667695
v -0.3772297 -0.1405754 -0.002667964
v 0.3327704 -0.1238289 -0.06516773
v -0.3772296 -0.1238284 -0.06516796
v 0.3327705 -0.07807541 -0.1109208
v -0.3772296 -0.07807541 -0.1109211
v 0.3327705 -0.01557541 -0.1276677
v -0.3772296 -0.01557517 -0.1276679
v 0.3327705 0.04692459 -0.1109208
v -0.3772295 0.04692483 -0.110921
v 0.3327704 0.04692435 0.1055856
v -0.3772296 0.04692459 0.1055853
v 0.04637841 0.008284807 0.01366052
v 0.06430805 0.03174663 0.05400985
v 0.04162431 0.07390285 0.03957716
v 0.02369466 0.05044103 -0.0007721782
v 0.00558655 -0.004845381 0.03942147
v -0.01709718 0.03731084 0.02498877
v 0.0008324459 0.06077266 0.0653381
v 0.02351619 0.01861644 0.0797708
v 0.105106 -0.009206057 -0.04501814
v 0.1308137 0.02269483 -0.01635721
v 0.1539854 0.04048038 -0.05693734
v 0.1282776 0.008579493 -0.08559829
v 0.06902014 0.02494073 -0.05065751
v 0.09219179 0.04272628 -0.09123766
v 0.1178995 0.07462716 -0.06257671
v 0.09472788 0.05684161 -0.02199656
vn 0.9251683 -0.379557 -1.323817E-07
vn 0.8180357 0.1396649 -0.5579529
vn 0.0499387 -0.9987522 -3.733202E-07
vn 0.0344626 0.999406 3.793773E-07
vn -0.05036461 0.008599228 -0.9986939
vn 0.05036458 -0.008599217 0.9986939
vn 0.03569878 0.03656975 -0.9986933
vn -0.03569872 -0.03656981 0.9986933
vn 0.8867177 -0.4623112 -1.868775E-09
vn 0.8180357 0.1396645 0.5579531
vn 0.6830947 0.7303296 1.321685E-07
vn 0.9857364 0.1682963 1.457289E-07
vn 0.9251685 -0.3795567 3.459723E-10
vn -0.8326468 0.1421594 0.5352476
vn 0.04993905 -0.9987522 -2.40654E-08
vn 0.03446225 0.999406 2.989389E-08
vn -0.05036461 0.008598861 -0.9986939
vn 0.05036459 -0.00859885 0.9986939
vn 0.03569877 0.03656941 -0.9986933
vn -0.0356987 -0.03656947 0.9986933
vn -0.8994431 -0.4370379 1.01392E-07
vn -0.8326468 0.1421597 -0.5352476
vn -0.7034913 0.7107039 -1.05531E-07
vn -0.9857364 0.1682965 4.154356E-10
vn -1.192093E-07 0 -1
vn 1.192093E-07 0 1
vn 0.009090735 -0.9999587 -1.527614E-10
vn -0.07751945 0.9889356 -0.1264799
vn -0.9997329 0.02311692 1.060554E-06
vn 1 -1.748456E-07 -1.192093E-07
vn 0.1648038 0.9863264 -1.563911E-08
vn -8.007988E-10 0.9863264 0.1648033
vn -0.1648034 0.9863264 4.114821E-08
vn 3.613743E-08 0.9993424 -0.03625893
vn -0.1648034 0.9863264 4.114821E-08
vn -0.1648 0.986327 1.308261E-06
vn -0.1333009 0.9890133 -0.06390356
vn -0.03162163 0.9831431 -0.1800826
vn -2.855729E-08 0.9863263 -0.1648039
vn -2.855729E-08 0.9863263 -0.1648039
vn 0.1648038 0.9863264 -1.563911E-08
vn 0.1648038 0.9863264 -1.563911E-08
vn 0.1648038 0.9863264 -1.563911E-08
vn -8.007988E-10 0.9863264 0.1648033
vn -0.03142161 0.9858394 0.1647218
vn 0.01241561 0.9841583 0.1768567
vn -0.009300463 0.02336673 -0.9996839
vn 0.00909262 -0.0002121747 0.9999588
vn -0.006094609 0.08987922 -0.9959342
vn 0.981677 -0.1905531 -3.87287E-07
vn 0.8779731 -0.4786021 0.01016872
vn -0.07812936 0.9967182 -0.02117696
vn -0.02045765 0.9997889 -0.001869424
vn 0.01300161 0.9998949 0.006411073
vn 0.01285722 0.0687958 0.997548
vn 3.187117E-08 0.9999795 0.006411619
vn 1.081764E-06 -0.1368546 0.9905912
vn 0 0 0
vn 0.01209807 0.02381586 0.9996433
vn -0.03028037 0.9995415 7.770607E-09
vn 1.748456E-07 1 0
vn 1.748456E-07 1 0
vn 1.748456E-07 1 0
vn 1.748456E-07 1 0
vn 1.748456E-07 1 0
vn 4.617808E-07 0.1804244 -0.983589
vn -0.01710906 -0.03368597 -0.9992861
vn -0.9851234 0.1604901 -0.06144191
vn -0.1648032 0.9863265 -6.57739E-08
vn -0.1648016 0.9863267 -1.036536E-06
vn -0.03162163 0.9831431 -0.1800826
vn -0.03162163 0.9831431 -0.1800826
vn -0.03162163 0.9831431 -0.1800826
vn -0.03142161 0.9858394 0.1647218
vn -0.03142161 0.9858394 0.1647218
vn -0.03142161 0.9858394 0.1647218
vn -0.06723455 0.9916883 -0.1096992
vn -0.1267112 0.9901294 -0.05990002
vn 0.7043629 -0.7040555 0.0904361
vn -0.7043629 0.7040555 -0.0904361
vn -0.5113543 -0.4149094 0.7525735
vn 0.5113543 0.4149094 -0.7525735
vn -0.4923308 -0.5763298 -0.6522686
vn 0.4923308 0.5763298 0.6522686
vn 0.7682624 -0.5797289 0.271454
vn -0.7682624 0.5797289 -0.271454
vn -0.6027555 -0.5123513 0.6117042
vn 0.6027555 0.5123513 -0.6117042
vn -0.2155427 -0.6335698 -0.743055
vn 0.2155427 0.6335698 0.743055
vn 0.9702657 0.153456 -0.1871785
vn -0.9702657 -0.153456 0.1871785
vn 0.2281985 -0.8377565 0.4960741
vn -0.2281985 0.8377565 -0.4960741
vn -0.08068446 -0.5240375 -0.8478648
vn 0.08068446 0.5240375 0.8478648
vn -4.634087E-07 0.2588187 0.9659259
vn -2.512848E-07 0.7071066 0.707107
vn 3.961742E-08 0.9659259 0.2588194
vn 5.214678E-07 0.9659265 -0.2588168
vn 5.935199E-07 0.7071068 -0.7071069
vn 6.23618E-07 0.2588198 -0.9659257
vn 5.458554E-07 -0.258818 -0.9659261
vn 1.447901E-07 -0.7071081 -0.7071056
vn 1.517095E-07 -0.9659252 -0.2588219
vn -5.227485E-07 -0.9659252 0.2588217
vn -4.64323E-07 -0.7071084 0.7071052
vn -5.630262E-07 -0.2588192 0.9659259
vn -1 1.788139E-07 -5.245366E-07
vn 1 -1.788139E-07 5.245366E-07
vn -3.496912E-07 -3.496911E-07 1
vn -4.816554E-07 -0.5000004 0.8660252
vn -4.845604E-07 -0.8660257 0.4999997
vn -3.576278E-07 -1 -3.934026E-07
vn -1.348692E-07 -0.8660253 -0.5000004
vn 1.240275E-07 -0.4999998 -0.8660256
vn 3.496912E-07 4.371139E-07 -1
vn 3.348522E-07 0.9997971 0.02014686
vn -1.240277E-07 0.4999995 0.8660257
vn -1 -2.069543E-05 -4.305786E-07
vn -1 3.57628E-07 -3.496911E-07
vn 0.8158372 0.2626005 -0.5152191
vn -0.8158372 -0.2626005 0.5152191
vn 0.4536749 -0.8431239 0.2886542
vn -0.4536749 0.8431239 -0.2886542
vn -0.3585928 -0.4692368 -0.806987
vn 0.3585928 0.4692368 0.806987
vn 0.7217165 -0.6829381 0.1127869
vn -0.7217165 0.6829381 -0.1127869
vn -0.463433 -0.3557116 0.8116028
vn 0.463433 0.3557116 -0.8116028
vn -0.5141549 -0.6380163 -0.5732189
vn 0.5141549 0.6380163 0.5732189
usemtl mat15
f 4//1 3//1 2//1 1//1
f 8//2 7//2 6//2 5//2
f 4//3 9//3 5//3 3//3
f 1//4 2//4 6//4 10//4
f 4//5 10//5 9//5
f 3//6 5//6 6//6
f 4//7 1//7 10//7
f 6//8 2//8 3//8
f 7//9 11//9 10//9 6//9
f 11//10 12//10 9//10 10//10
f 12//11 8//11 5//11 9//11
f 16//13 15//13 14//13 13//13
f 20//14 19//14 18//14 17//14
f 14//15 21//15 17//15 13//15
f 18//16 22//16 15//16 16//16
f 17//17 18//17 13//17
f 22//18 21//18 14//18
f 18//19 16//19 13//19
f 14//20 15//20 22//20
f 19//21 23//21 22//21 18//21
f 23//22 24//22 21//22 22//22
f 24//23 20//23 17//23 21//23
usemtl mat17
f 12//12 11//12 7//12 8//12
f 24//24 23//24 19//24 20//24
f 27//25 26//25 25//25
f 30//26 29//26 28//26
f 25//27 30//27 32//27 31//27
f 32//29 39//29 38//29 37//29 36//29 31//29
f 26//30 42//30 41//30 40//30 29//30 30//30 25//30
f 48//34 34//34 45//34
f 25//47 31//47 64//47
f 39//48 32//48 30//48
f 25//49 64//49 33//49
f 35//50 49//50 50//50
f 35//51 50//51 51//51
f 34//52 35//52 51//52
f 34//53 51//53 47//53
f 34//54 47//54 60//54
f 59//55 39//55 30//55
f 34//56 60//56 61//56
f 58//57 59//57 30//57
f 34//58 61//58 66//58 65//58 63//58 45//58
f 28//59 62//59 68//59 67//59 58//59 30//59
f 55//60 70//60 69//60 54//60 48//60 45//60
f 44//61 55//61 45//61
f 43//62 44//62 45//62
f 57//63 43//63 45//63
f 56//64 57//64 45//64
f 46//65 56//65 45//65
f 25//66 33//66 52//66
f 25//67 52//67 53//67 72//67 71//67 27//67
f 36//68 64//68 31//68
usemtl mat23
f 35//28 34//28 33//28
f 47//33 38//33 39//33
f 50//35 49//35 36//35 37//35
f 48//38 54//38 53//38 52//38
f 55//40 44//40 26//40 27//40
f 56//42 46//42 29//42 40//42
f 43//43 57//43 41//43 42//43
f 61//44 60//44 59//44 58//44
f 45//45 63//45 62//45 28//45
f 47//70 51//70 38//70
f 69//71 70//71 71//71 72//71
f 65//74 66//74 67//74 68//74
f 33//77 64//77 35//77
usemtl mat12
f 44//31 43//31 42//31 26//31
f 46//32 45//32 28//32 29//32
f 51//36 50//36 38//36
f 49//37 35//37 36//37
f 34//39 48//39 52//39 33//39
f 57//41 56//41 40//41 41//41
f 60//46 47//46 39//46 59//46
f 50//69 37//69 38//69
f 54//72 69//72 72//72 53//72
f 70//73 55//73 27//73 71//73
f 66//75 61//75 58//75 67//75
f 63//76 65//76 68//76 62//76
f 35//78 64//78 36//78
f 76//79 75//79 74//79 73//79
f 80//80 79//80 78//80 77//80
f 74//81 80//81 77//81 73//81
f 78//82 79//82 75//82 76//82
f 77//83 78//83 76//83 73//83
f 75//84 79//84 80//84 74//84
f 84//85 83//85 82//85 81//85
f 88//86 87//86 86//86 85//86
f 82//87 88//87 85//87 81//87
f 86//88 87//88 83//88 84//88
f 85//89 86//89 84//89 81//89
f 83//90 87//90 88//90 82//90
f 92//91 91//91 90//91 89//91
f 96//92 95//92 94//92 93//92
f 90//93 96//93 93//93 89//93
f 94//94 95//94 91//94 92//94
f 93//95 94//95 92//95 89//95
f 91//96 95//96 96//96 90//96
f 142//122 141//122 140//122 139//122
f 146//123 145//123 144//123 143//123
f 140//124 146//124 143//124 139//124
f 144//125 145//125 141//125 142//125
f 143//126 144//126 142//126 139//126
f 141//127 145//127 146//127 140//127
f 150//128 149//128 148//128 147//128
f 154//129 153//129 152//129 151//129
f 148//130 154//130 151//130 147//130
f 152//131 153//131 149//131 150//131
f 151//132 152//132 150//132 147//132
f 149//133 153//133 154//133 148//133
usemtl mat24
f 100//97 99//97 98//97 97//97
f 99//98 102//98 101//98 98//98
f 102//99 104//99 103//99 101//99
f 104//100 106//100 105//100 103//100
f 106//101 108//101 107//101 105//101
f 108//102 110//102 109//102 107//102
f 110//103 112//103 111//103 109//103
f 112//104 114//104 113//104 111//104
f 114//105 116//105 115//105 113//105
f 116//106 118//106 117//106 115//106
f 118//107 120//107 119//107 117//107
f 120//108 100//108 97//108 119//108
f 97//109 98//109 101//109 103//109 105//109 107//109 109//109 111//109 113//109 115//109 117//109 119//109
f 120//110 118//110 116//110 114//110 112//110 110//110 108//110 106//110 104//110 102//110 99//110 100//110
usemtl mat9
f 124//111 123//111 122//111 121//111
f 123//112 126//112 125//112 122//112
f 126//113 128//113 127//113 125//113
f 128//114 130//114 129//114 127//114
f 130//115 132//115 131//115 129//115
f 132//116 134//116 133//116 131//116
f 134//117 136//117 135//117 133//117
f 136//118 138//118 137//118 135//118
f 138//119 124//119 121//119 137//119
f 121//120 122//120 125//120 127//120 129//120 131//120 133//120 135//120 137//120
f 138//121 136//121 134//121 132//121 130//121 128//121 126//121 123//121 124//121
