# Blender v2.78 (sub 0) OBJ File: '7.blend'
# www.blender.org
mtllib IMac_01.mtl
o IMac_01_Cube.026
v 2.813945 1.160367 -0.995117
v -2.813945 1.160367 -0.995117
v -2.813945 14.696217 -0.995117
v 2.813945 14.696217 -0.995117
v -2.813945 1.160367 -0.619592
v 2.813945 1.160367 -0.619592
v 2.813945 14.696217 -0.619592
v -2.813945 14.696217 -0.619592
v -8.441835 5.672317 -0.619592
v -8.441835 11.925877 -0.619592
v -8.441835 11.925877 -0.995117
v -8.441835 5.672317 -0.995117
v 8.441835 11.925877 -0.995117
v 8.441835 5.672317 -0.995117
v 8.441835 11.925877 -0.619592
v 8.441835 5.672317 -0.619592
v 3.779176 10.439598 0.189711
v 3.779176 4.898479 0.189711
v -3.779176 10.439598 0.189711
v -3.779176 4.898479 0.189711
v 2.695373 3.051885 -0.995117
v -2.695374 3.051885 -0.995117
v -2.695374 14.079268 -0.995117
v 2.695374 14.079268 -0.995117
v -8.441835 1.678215 -0.619592
v -7.923988 1.160367 -0.619592
v -8.290161 1.312041 -0.619592
v -7.923988 14.696217 -0.619592
v -8.441835 14.178370 -0.619592
v -8.290161 14.544544 -0.619592
v -7.923988 1.160367 -0.995117
v -8.441835 1.678215 -0.995117
v -8.290161 1.312041 -0.995117
v -8.441835 14.178370 -0.995117
v -7.923988 14.696217 -0.995117
v -8.290161 14.544544 -0.995117
v 7.923988 1.160367 -0.619592
v 8.441835 1.678215 -0.619592
v 8.290161 1.312041 -0.619592
v 8.441835 14.178370 -0.619592
v 7.923988 14.696217 -0.619592
v 8.290161 14.544544 -0.619592
v 8.441835 1.678215 -0.995117
v 7.923988 1.160367 -0.995117
v 8.290161 1.312041 -0.995117
v 7.923988 14.696217 -0.995117
v 8.441835 14.178370 -0.995117
v 8.290161 14.544544 -0.995117
v 2.695373 2.602285 -0.995117
v -2.695374 2.602285 -0.995117
v -2.695374 14.353554 -0.995117
v 2.695374 14.353554 -0.995117
v -2.695374 6.519375 -0.995117
v 2.695373 6.519375 -0.995117
v -8.086121 11.925877 -0.995117
v -8.086121 6.519375 -0.995117
v 8.086121 11.925877 -0.995117
v 8.086121 6.519375 -0.995117
v -2.695374 11.925877 -0.995117
v 2.695374 11.925877 -0.995117
v -7.940838 2.733962 -0.995117
v -7.590093 2.602285 -0.995117
v -8.086121 3.051859 -0.995117
v -7.590093 14.353554 -0.995117
v -8.087167 14.356215 -0.995117
v -8.086121 14.079275 -0.995117
v 7.590093 2.602285 -0.995117
v 7.940838 2.733962 -0.995117
v 8.086121 3.051859 -0.995117
v 8.087167 14.356215 -0.995117
v 7.590093 14.353554 -0.995117
v 8.086121 14.079275 -0.995117
v 1.736251 6.610845 0.189711
v 1.736251 6.322809 0.189711
v -1.736250 6.610845 0.189711
v -1.736250 6.322809 0.189711
v 2.233068 0.328877 3.395397
v 2.233068 0.286029 3.161819
v -2.233068 0.328877 3.395397
v -2.233068 0.286029 3.161819
v 2.233068 0.084780 3.338424
v 2.233068 0.186106 3.123719
v -2.233068 0.084780 3.338424
v -2.233068 0.186106 3.123719
v 2.252368 -0.003517 3.107312
v 2.252368 0.163579 3.065925
v -2.252368 -0.003517 3.107312
v -2.252368 0.163579 3.065925
v 2.333515 -0.004158 2.850963
v 2.333515 0.165923 2.852276
v -2.333515 -0.004158 2.850963
v -2.333514 0.165923 2.852276
v 2.511194 -0.004158 -0.625796
v 3.013590 -0.004158 0.034791
v 2.829406 -0.004158 -0.537294
v 3.013296 -0.004158 -0.295503
v 3.013590 0.165923 0.036104
v 2.511194 0.165923 -0.624483
v 3.013296 0.165923 -0.294189
v 2.829406 0.165923 -0.535981
v -3.013590 -0.004158 0.034791
v -2.511194 -0.004158 -0.625796
v -3.013296 -0.004158 -0.295502
v -2.829406 -0.004158 -0.537294
v -2.511194 0.165923 -0.624483
v -3.013590 0.165923 0.036104
v -2.829406 0.165923 -0.535981
v -3.013296 0.165923 -0.294189
v -0.025996 14.400999 -0.995117
v 0.025996 14.400999 -0.995117
v 0.034385 14.376305 -0.995117
v -0.034385 14.376305 -0.995117
v 0.024901 14.353452 -0.995117
v -0.024901 14.353452 -0.995117
v -0.000000 1.160367 -0.995117
v 0.000000 14.696217 -0.995117
v 0.000000 1.160367 -0.619592
v -0.000000 14.696217 -0.619592
v 0.000000 4.898479 0.189711
v -0.000000 10.447866 0.189711
v -0.000000 2.602285 -0.995117
v -0.000000 6.519375 -0.995117
v 0.000000 11.925877 -0.995117
v 0.000000 14.079268 -0.995117
v -0.000000 3.051885 -0.995117
v 0.000000 6.322809 0.189711
v 0.000000 6.610845 0.189711
v 0.000000 0.286029 3.161819
v 0.000000 0.328877 3.395397
v 0.000000 0.186106 3.123719
v 0.000000 0.084780 3.338424
v 0.000000 0.163579 3.065925
v 0.000000 -0.003517 3.107312
v 0.000000 0.165923 2.852276
v 0.000000 -0.004158 2.850963
v 0.000000 14.409105 -0.995117
v 0.000000 14.376305 -0.995117
v 0.000000 14.345924 -0.995117
v 8.441835 3.051823 -0.995117
v 8.441835 3.052426 -0.619592
v -8.441835 3.052893 -0.995117
v -8.441835 3.051308 -0.619592
v 1.736251 6.236624 0.705736
v 1.767420 5.542226 1.245741
v 1.743796 5.924531 1.013802
v 1.767420 5.370748 1.090508
v 1.736251 6.064753 0.550148
v 1.743796 5.753615 0.859079
v -1.767419 5.542226 1.245741
v -1.736250 6.236624 0.705736
v -1.743795 5.924531 1.013801
v -1.736250 6.064753 0.550148
v -1.767419 5.370748 1.090508
v -1.743795 5.753615 0.859079
v 0.000000 6.064753 0.550148
v 0.000000 5.370748 1.090508
v 0.000000 5.753615 0.859079
v 0.000000 5.542226 1.245741
v 0.000000 6.236624 0.705736
v 0.000000 5.924531 1.013802
vn 0.0000 1.0000 0.0000
vn -1.0000 0.0000 0.0000
vn 0.0000 0.0000 -1.0000
vn 0.0605 0.1229 0.9906
vn -0.0509 -0.1514 0.9872
vn 0.0000 -1.0000 0.0000
vn 1.0000 0.0000 0.0000
vn -0.0002 0.1870 0.9824
vn 0.0000 -0.2116 0.9774
vn -0.0000 0.0000 1.0000
vn 0.1710 0.0000 0.9853
vn -0.1710 0.0000 0.9853
vn 0.0509 -0.1514 0.9872
vn -0.0605 0.1229 0.9906
vn -0.3827 -0.9239 0.0000
vn -0.9239 -0.3827 0.0000
vn -0.3827 0.9239 0.0000
vn -0.9239 0.3827 0.0000
vn 0.3827 -0.9239 0.0000
vn 0.9239 -0.3827 0.0000
vn 0.3827 0.9239 0.0000
vn 0.9239 0.3827 0.0000
vn -0.9965 0.0735 -0.0405
vn 0.0000 -0.3773 -0.9261
vn 0.0000 0.8095 0.5871
vn 0.0000 0.3812 0.9245
vn 0.0000 0.3563 -0.9344
vn 0.0000 -0.8131 -0.5821
vn 0.0000 0.9317 -0.3632
vn 0.0000 -0.2273 0.9738
vn 0.0000 -1.0000 0.0025
vn 0.9910 0.0925 0.0969
vn 0.0000 -0.9341 0.3569
vn -0.9910 0.0925 0.0969
vn -0.9721 -0.0018 0.2347
vn -0.9445 0.0388 0.3263
vn 0.0000 0.9999 0.0110
vn 0.9445 0.0388 0.3263
vn 0.0000 0.0077 -1.0000
vn 0.2679 0.0074 -0.9634
vn 0.7959 0.0047 -0.6053
vn 1.0000 0.0000 -0.0009
vn -1.0000 0.0000 -0.0009
vn -0.7960 0.0047 -0.6053
vn -0.2679 0.0074 -0.9634
vn 0.9721 -0.0018 0.2347
vn 0.9965 0.0735 -0.0405
vn 0.0002 0.1870 0.9824
vn 0.9985 0.0369 -0.0408
vn 0.9999 0.0116 -0.0128
vn -0.9999 0.0116 -0.0128
vn -0.9985 0.0369 -0.0408
vn -0.0000 -0.5173 -0.8558
vn -0.0000 -0.7046 -0.7096
vn 0.0000 0.7025 0.7117
vn 0.0000 0.5187 0.8550
usemtl FFFFFF
s off
f 3//1 35//1 28//1 8//1
f 10//2 29//2 34//2 11//2
f 46//1 4//1 7//1 41//1
f 115//3 2//3 50//3 121//3
f 15//4 40//4 42//4 41//4 7//4 17//4
f 116//1 3//1 8//1 118//1
f 5//5 20//5 142//5 25//5 27//5 26//5
f 115//6 1//6 6//6 117//6
f 13//7 47//7 40//7 15//7
f 120//8 118//8 8//8 19//8
f 43//7 139//7 140//7 38//7
f 43//3 45//3 68//3 69//3
f 33//3 32//3 63//3 61//3
f 117//9 119//9 20//9 5//9
f 18//10 17//10 73//10 74//10
f 1//6 44//6 37//6 6//6
f 16//11 15//11 17//11 18//11
f 25//2 142//2 141//2 32//2
f 20//12 19//12 10//12 9//12
f 37//13 39//13 38//13 140//13 18//13 6//13
f 14//7 13//7 15//7 16//7
f 19//14 8//14 28//14 30//14 29//14 10//14
f 9//2 10//2 11//2 12//2
f 31//15 26//15 27//15 33//15
f 33//16 27//16 25//16 32//16
f 28//17 35//17 36//17 30//17
f 30//18 36//18 34//18 29//18
f 37//19 44//19 45//19 39//19
f 39//20 45//20 43//20 38//20
f 46//21 41//21 42//21 48//21
f 48//22 42//22 40//22 47//22
f 31//6 2//6 5//6 26//6
f 49//3 21//3 69//3 68//3 67//3
f 62//3 61//3 63//3 22//3 50//3
f 121//3 125//3 21//3 49//3
f 2//3 31//3 62//3 50//3
f 31//3 33//3 61//3 62//3
f 45//3 44//3 67//3 68//3
f 32//3 141//3 63//3
f 44//3 1//3 49//3 67//3
f 149//23 153//23 80//23 79//23
f 119//10 18//10 74//10 126//10
f 120//10 19//10 75//10 127//10
f 19//10 20//10 76//10 75//10
f 153//24 156//24 128//24 80//24
f 73//25 127//25 159//25 143//25
f 75//2 76//2 152//2 150//2
f 158//26 149//26 79//26 129//26
f 128//27 78//27 82//27 130//27
f 127//25 75//25 150//25 159//25
f 126//28 74//28 147//28 155//28
f 144//26 158//26 129//26 77//26
f 130//29 82//29 86//29 132//29
f 78//7 77//7 81//7 82//7
f 129//30 79//30 83//30 131//30
f 79//2 80//2 84//2 83//2
f 133//31 87//31 91//31 135//31
f 82//32 81//32 85//32 86//32
f 131//33 83//33 87//33 133//33
f 83//34 84//34 88//34 87//34
f 91//35 92//35 106//35 101//35
f 87//36 88//36 92//36 91//36
f 132//37 86//37 90//37 134//37
f 86//38 85//38 89//38 90//38
f 89//6 135//6 91//6 101//6 103//6 104//6 102//6 93//6 95//6 96//6 94//6
f 98//39 93//39 102//39 105//39
f 92//1 134//1 90//1 97//1 99//1 100//1 98//1 105//1 107//1 108//1 106//1
f 93//40 98//40 100//40 95//40
f 95//41 100//41 99//41 96//41
f 96//42 99//42 97//42 94//42
f 101//43 106//43 108//43 103//43
f 103//44 108//44 107//44 104//44
f 104//45 107//45 105//45 102//45
f 90//46 89//46 94//46 97//46
f 88//37 132//37 134//37 92//37
f 81//33 131//33 133//33 85//33
f 85//31 133//31 135//31 89//31
f 77//30 129//30 131//30 81//30
f 84//29 130//29 132//29 88//29
f 76//28 126//28 155//28 152//28
f 80//27 128//27 130//27 84//27
f 146//47 144//47 77//47 78//47
f 156//24 146//24 78//24 128//24
f 17//10 120//10 127//10 73//10
f 20//10 119//10 126//10 76//10
f 50//3 22//3 125//3 121//3
f 6//9 18//9 119//9 117//9
f 17//48 7//48 118//48 120//48
f 2//6 115//6 117//6 5//6
f 4//1 116//1 118//1 7//1
f 1//3 115//3 121//3 49//3
f 69//3 139//3 43//3
f 140//7 139//7 14//7 16//7
f 141//2 142//2 9//2 12//2
f 142//12 20//12 9//12
f 18//11 140//11 16//11
f 144//49 146//49 148//49 145//49
f 145//50 148//50 147//50 143//50
f 150//51 152//51 154//51 151//51
f 151//52 154//52 153//52 149//52
f 156//53 153//53 154//53 157//53
f 157//54 154//54 152//54 155//54
f 159//55 150//55 151//55 160//55
f 160//56 151//56 149//56 158//56
f 146//53 156//53 157//53 148//53
f 148//54 157//54 155//54 147//54
f 143//55 159//55 160//55 145//55
f 145//56 160//56 158//56 144//56
f 74//7 73//7 143//7 147//7
usemtl 1A1A1A
f 34//3 36//3 65//3 66//3
f 11//3 34//3 66//3 55//3
f 13//3 14//3 58//3 57//3
f 4//3 46//3 71//3 52//3
f 48//3 47//3 72//3 70//3
f 12//3 11//3 55//3 56//3
f 123//3 124//3 24//3 60//3
f 122//3 123//3 60//3 54//3
f 55//3 66//3 23//3 59//3
f 56//3 55//3 59//3 53//3
f 60//3 24//3 72//3 57//3
f 54//3 60//3 57//3 58//3
f 35//3 3//3 51//3 64//3
f 52//3 24//3 113//3 111//3
f 47//3 13//3 57//3 72//3
f 46//3 48//3 70//3 71//3
f 14//3 139//3 69//3 58//3
f 36//3 35//3 64//3 65//3
f 72//3 24//3 52//3 71//3 70//3
f 23//3 66//3 65//3 64//3 51//3
f 124//3 23//3 114//3 138//3
f 125//3 22//3 53//3 122//3
f 69//3 21//3 54//3 58//3
f 22//3 63//3 56//3 53//3
f 136//3 110//3 111//3 137//3
f 138//3 114//3 112//3 137//3
f 116//3 4//3 110//3 136//3
f 51//3 3//3 109//3 112//3
f 23//3 51//3 112//3 114//3
f 4//3 52//3 111//3 110//3
f 3//3 116//3 136//3 109//3
f 113//3 138//3 137//3 111//3
f 109//3 136//3 137//3 112//3
f 21//3 125//3 122//3 54//3
f 24//3 124//3 138//3 113//3
f 53//3 59//3 123//3 122//3
f 59//3 23//3 124//3 123//3
f 63//3 141//3 12//3 56//3
