mtllib materials.mtl
v 0.13125 -0.3649999 0.0007692575
v 0.22125 -0.3649999 0.05076927
v 0.22125 0.365 0.05076927
v 0.13125 0.365 0.0007692575
v -0.12875 -0.3649999 0.0007692575
v -0.12875 0.365 0.0007692575
v -0.21875 0.365 0.04076928
v -0.21875 -0.3649999 0.04076928
v 0.001249969 -0.3649999 0.0007692575
v 0.001249969 -0.3649999 0.04076928
v 0.001249969 0.365 0.04076928
v 0.001249969 0.365 0.0007692575
v 0.13125 -0.3649999 0.0807693
v 0.001249969 -0.3649999 0.0807693
v 0.001249969 0.365 0.0807693
v 0.13125 0.365 0.0807693
v -0.12875 0.365 0.0807693
v -0.12875 -0.3649999 0.0807693
v 0.08182696 -0.01730764 -0.07538459
v 0.08875 -0.01730776 -0.04076922
v 0.08875 0.01730764 -0.04076916
v 0.08182696 0.01730764 -0.07538456
v -0.08432683 -0.01730764 -0.07538474
v -0.08432683 0.01730776 -0.07538471
v -0.09124996 0.01730776 -0.04076934
v -0.09124996 -0.01730764 -0.0407694
v -0.001249969 -0.01730764 -0.08230773
v -0.001249969 -0.01730764 -0.05461544
v 0.04375002 -0.01730764 -0.04076925
v 0.04375002 0.01730764 -0.04076922
v -0.001249969 0.01730764 -0.05461541
v -0.001249939 0.01730776 -0.0823077
v 0.05728829 -0.006893635 0.0007691979
v 0.07521164 -0.006893635 0.0007692575
v -0.04624996 -0.01730764 -0.04076934
v -0.04624994 0.01730764 -0.04076931
v -0.07771166 -0.006893635 0.0007691383
v -0.05978833 -0.006893635 0.0007691383
v -0.07771164 0.006893635 0.0007691383
v -0.0597883 0.006893635 0.0007691383
v 0.05728829 0.006893516 0.0007692575
v 0.07521164 0.006893516 0.0007692575
vn 0.485643 -4.956601E-10 -0.8741572
vn -0.4061387 2.228023E-09 -0.9138115
vn 0 -1 1.811063E-07
vn 0 1 -7.565199E-07
vn -1.161947E-08 0 -1
vn 1.073386E-07 -2.041255E-08 1
vn 0.3162279 -2.42601E-08 0.9486833
vn -0.4061385 -1.849778E-08 0.9138115
vn 0 1 -7.565199E-07
vn 0 -1 1.162291E-07
vn 0 1 -8.685244E-07
vn 0 1 -1.345361E-06
vn 1.161947E-08 0 -1
vn 0 -1 1.49863E-07
vn 0 -1 -1.811063E-07
vn -8.579551E-08 -2.041255E-08 1
vn 0 1 -3.894955E-07
vn 0 1 2.51134E-06
vn 0 -1 2.755976E-07
vn 0 -1 1.255671E-07
vn 0.9805809 -4.577357E-08 -0.1961154
vn -0.9805804 4.791194E-07 -0.1961177
vn -3.171446E-07 -1 -7.790754E-07
vn 1.630926E-07 1 6.701796E-07
vn 0.08304631 9.446393E-07 -0.9965457
vn -8.431495E-07 -0.9699806 0.2431824
vn 0.294085 -1.009628E-06 0.9557793
vn -7.42087E-07 -0.9699808 0.2431818
vn -0.2940866 -8.422985E-07 0.9557788
vn -0.9507761 5.94079E-08 0.3098789
vn 2.607806E-07 0.9699802 0.2431839
vn 0.9507756 -1.120728E-06 0.3098803
vn -5.601154E-07 -6.43775E-07 1
vn -0.9507763 -8.734459E-08 0.3098782
vn -2.567111E-07 0.9699803 0.2431836
vn 0.9507757 -6.657925E-07 0.3098801
vn -1.959555E-06 -1.049073E-06 1
vn 3.019566E-07 1 4.978055E-07
vn -3.106356E-07 -1 -4.60155E-07
vn -0.08304459 8.24655E-07 -0.9965459
vt -0.07788737 0.1301526
vt -0.0719072 0.1385334
vt -0.1313302 0.1809352
vt -0.1373103 0.1725544
vt -0.1294199 0.05145622
vt -0.1954304 0.08262678
vt -0.1996358 0.07372091
vt -0.1336253 0.04255035
vt 0.06336579 0.01984384
vt 0.05899342 0.007601199
vt 0.0627604 0.006255853
vt -0.06336592 0.01984381
vt -0.06276052 0.006255822
vt -0.05899356 0.007601167
vt -0.1064368 0.09793977
vt -0.17173 0.1305864
vt -0.1775438 0.1189588
vt -0.1122506 0.08631223
vt 0.1064368 0.09793977
vt 0.1122506 0.08631222
vt 0.1775438 0.1189588
vt 0.17173 0.1305864
vt 0.1137591 0.0846875
vt 0.1178013 0.07610492
vt 0.1838431 0.1072091
vt 0.1798009 0.1157917
vt 0.1626049 0.1388236
vt 0.1572351 0.1470798
vt 0.09603976 0.1072786
vt 0.1014096 0.0990224
vt -0.07089986 0.01715312
vt -0.06652749 0.004910477
vt -0.06276052 0.006255822
vt 0.05536098 -0.01446247
vt 0.06215499 -0.007332137
vt 0.06652735 0.004910508
vt 0.06276039 0.006255854
vt -0.06652752 0.004910471
vt -0.06215515 -0.007332175
vt -0.05536115 -0.01446251
vt -0.06276055 0.006255816
vt -0.06276064 0.006255795
vt -0.05536125 -0.01446253
vt -0.0546213 -0.004641508
vt -0.05899367 0.00760114
vt -0.1775438 0.1189588
vt -0.1833576 0.1073313
vt -0.1180644 0.07468467
vt -0.1122506 0.08631223
vt 0.05899342 0.007601199
vt 0.05462105 -0.004641446
vt 0.05536099 -0.01446247
vt 0.06276039 0.006255853
vt 0.06652732 0.004910511
vt 0.07089969 0.01715316
vt 0.06276035 0.006255858
vt 0.1122506 0.08631223
vt 0.1180644 0.07468468
vt 0.1833576 0.1073313
vt 0.1775438 0.1189588
vt -0.06336585 0.01984383
vt -0.07110159 0.02663783
vt -0.06276045 0.00625584
vt -0.06275988 0.006255963
vt -0.07110104 0.02663794
vt -0.07089923 0.01715325
vt 0.06276041 0.006255849
vt 0.07110155 0.02663784
vt 0.0633658 0.01984384
vt 0.07089973 0.01715315
vt 0.07110153 0.02663784
vt 0.06276039 0.006255853
vt 0.1002775 0.1509302
vt 0.103651 0.1498906
vt 0.1046705 0.1531986
vt 0.101297 0.1542382
vt -0.1557919 0.08715697
vt -0.1583454 0.08949398
vt -0.1607287 0.08688988
vt -0.1581752 0.08455285
vt 0.05453163 0.01775078
vt 0.05108546 0.01015993
vt 0.05369337 0.009228532
vt 0.05651084 0.01300067
vt 0.05802435 0.01723851
vt -0.05453166 0.0177508
vt -0.05802438 0.01723853
vt -0.05651087 0.01300069
vt -0.0536934 0.009228555
vt -0.05108549 0.01015995
vt -0.1365733 0.1141999
vt -0.139648 0.1157899
vt -0.1434773 0.108385
vt -0.1404026 0.1067949
vt 0.09529623 0.01521678
vt 0.09430914 0.01082638
vt 0.0987842 0.01120787
vt 0.09917737 0.01295656
vt 0.1522346 0.08458827
vt 0.1542419 0.08032943
vt 0.1573731 0.08180527
vt 0.1553657 0.0860641
vt 0.09233484 0.002045587
vt 0.09134774 -0.002344815
vt 0.09582282 -0.001963325
vt 0.09621598 -0.0002146448
vt 0.1273991 0.1261815
vt 0.1297847 0.1221225
vt 0.132769 0.1238764
vt 0.1303834 0.1279354
vt -0.06214898 0.1703855
vt -0.06235413 0.173841
vt -0.06665364 0.1725425
vt -0.06657193 0.1711662
vt -0.01140055 0.01426212
vt -0.01330804 0.01833784
vt -0.0166128 0.01529639
vt -0.01585306 0.01367305
vt 0.1645577 0.07678206
vt 0.1618149 0.07467039
vt 0.1653052 0.07184388
vt 0.1663977 0.07268497
vt 0.1470104 0.09686781
vt 0.1478119 0.0952647
vt 0.1490451 0.09588129
vt 0.1482435 0.0974844
vt -0.06632526 0.1701375
vt -0.06653042 0.173593
vt -0.07082992 0.1722944
vt -0.0707482 0.1709182
vt -0.01712311 0.02648933
vt -0.01903061 0.03056504
vt -0.02233537 0.0275236
vt -0.02157562 0.02590026
vt 0.1620057 0.0800968
vt 0.1592628 0.07798512
vt 0.1627532 0.07515863
vt 0.1638457 0.0759997
vt 0.1409729 0.1089427
vt 0.1417745 0.1073396
vt 0.1430077 0.1079561
vt 0.1422061 0.1095593
vt -0.05369341 0.009228524
vt -0.05348384 0.004524993
vt -0.05197032 0.0002871544
vt -0.0489433 0.002103376
vt -0.05108551 0.01015992
vt 0.05108552 0.01015992
vt 0.0489433 0.002103374
vt 0.05197033 0.0002871532
vt 0.05348384 0.00452499
vt 0.05369341 0.009228522
vt -0.1492748 0.09825637
vt -0.1529263 0.09076212
vt -0.1498144 0.08924593
vt -0.146163 0.09674019
o group1616988815
g mesh1616988815
usemtl mat24
f 4/4/1 3/3/1 2/2/1 1/1/1
f 8/8/2 7/7/2 6/6/2 5/5/2
f 10/11/3 9/10/3 1/9/3
f 12/14/4 11/13/4 4/12/4
f 9/18/5 12/17/5 4/16/5 1/15/5
f 16/22/6 15/21/6 14/20/6 13/19/6
f 3/26/7 16/25/7 13/24/7 2/23/7
f 8/30/8 18/29/8 17/28/8 7/27/8
f 11/33/9 15/32/9 16/31/9
f 10/37/10 14/36/10 18/35/10 8/34/10
f 11/41/11 7/40/11 17/39/11 15/38/11
f 12/45/12 6/44/12 7/43/12 11/42/12
f 9/49/13 5/48/13 6/47/13 12/46/13
f 10/53/14 8/52/14 5/51/14 9/50/14
f 10/56/15 13/55/15 14/54/15
f 15/60/16 17/59/16 18/58/16 14/57/16
f 11/63/17 3/62/17 4/61/17
f 16/66/18 3/65/18 11/64/18
f 1/69/19 2/68/19 10/67/19
f 10/72/20 2/71/20 13/70/20
o group2020568996
g mesh2020568996
usemtl mat16
f 22/76/21 21/75/21 20/74/21 19/73/21
f 26/80/22 25/79/22 24/78/22 23/77/22
f 20/85/23 29/84/23 28/83/23 27/82/23 19/81/23
f 32/90/24 31/89/24 30/88/24 21/87/24 22/86/24
f 27/94/25 32/93/25 22/92/25 19/91/25
f 34/98/26 33/97/26 29/96/26 20/95/26
f 31/102/27 36/101/27 35/100/27 28/99/27
f 38/106/28 37/105/28 26/104/28 35/103/28
f 30/110/29 31/109/29 28/108/29 29/107/29
f 37/114/30 39/113/30 25/112/30 26/111/30
f 39/118/31 40/117/31 36/116/31 25/115/31
f 40/122/32 38/121/32 35/120/32 36/119/32
f 40/126/33 39/125/33 37/124/33 38/123/33
f 33/130/34 41/129/34 30/128/34 29/127/34
f 41/134/35 42/133/35 21/132/35 30/131/35
f 42/138/36 34/137/36 20/136/36 21/135/36
f 42/142/37 41/141/37 33/140/37 34/139/37
f 32/147/38 24/146/38 25/145/38 36/144/38 31/143/38
f 28/152/39 35/151/39 26/150/39 23/149/39 27/148/39
f 27/156/40 23/155/40 24/154/40 32/153/40
