{
   "accessors" : [
      {
         "bufferView" : 0,
         "componentType" : 5125,
         "count" : 5016,
         "type" : "SCALAR"
      },
      {
         "bufferView" : 1,
         "componentType" : 5126,
         "count" : 1359,
         "max" : [ 0.069865383207798, -0.229902222752571, -0.838898301124573 ],
         "min" : [ -0.0698653534054756, -0.281603574752808, -0.848223268985748 ],
         "type" : "VEC3"
      },
      {
         "bufferView" : 2,
         "componentType" : 5126,
         "count" : 1359,
         "type" : "VEC3"
      },
      {
         "bufferView" : 3,
         "componentType" : 5126,
         "count" : 1359,
         "type" : "VEC2"
      },
      {
         "bufferView" : 4,
         "componentType" : 5125,
         "count" : 1044867,
         "type" : "SCALAR"
      },
      {
         "bufferView" : 5,
         "componentType" : 5126,
         "count" : 435322,
         "max" : [ 0.113732218742371, 0.321035325527191, 0.999999940395355 ],
         "min" : [ -0.113732218742371, -0.321035325527191, -0.999999940395355 ],
         "type" : "VEC3"
      },
      {
         "bufferView" : 6,
         "componentType" : 5126,
         "count" : 435322,
         "type" : "VEC3"
      },
      {
         "bufferView" : 7,
         "componentType" : 5126,
         "count" : 435322,
         "type" : "VEC2"
      },
      {
         "bufferView" : 8,
         "componentType" : 5125,
         "count" : 9696,
         "type" : "SCALAR"
      },
      {
         "bufferView" : 9,
         "componentType" : 5126,
         "count" : 3773,
         "max" : [ 0.0925843417644501, 0.12843719124794, 0.403064072132111 ],
         "min" : [ -0.083925373852253, -0.179053068161011, -0.994759678840637 ],
         "type" : "VEC3"
      },
      {
         "bufferView" : 10,
         "componentType" : 5126,
         "count" : 3773,
         "type" : "VEC3"
      },
      {
         "bufferView" : 11,
         "componentType" : 5126,
         "count" : 3773,
         "type" : "VEC2"
      },
      {
         "bufferView" : 12,
         "componentType" : 5125,
         "count" : 56484,
         "type" : "SCALAR"
      },
      {
         "bufferView" : 13,
         "componentType" : 5126,
         "count" : 19688,
         "max" : [ 0.107584342360497, 0.184136927127838, 0.498964458703995 ],
         "min" : [ -0.107584342360497, -0.07055433839559561, -0.550665557384491 ],
         "type" : "VEC3"
      },
      {
         "bufferView" : 14,
         "componentType" : 5126,
         "count" : 19688,
         "type" : "VEC3"
      },
      {
         "bufferView" : 15,
         "componentType" : 5126,
         "count" : 19688,
         "type" : "VEC2"
      },
      {
         "bufferView" : 16,
         "componentType" : 5125,
         "count" : 2649,
         "type" : "SCALAR"
      },
      {
         "bufferView" : 17,
         "componentType" : 5126,
         "count" : 584,
         "max" : [ 0.112327858805656, 0.0111777884885669, 0.979340076446533 ],
         "min" : [ -0.112327858805656, -0.146881610155106, -0.996294617652893 ],
         "type" : "VEC3"
      },
      {
         "bufferView" : 18,
         "componentType" : 5126,
         "count" : 584,
         "type" : "VEC3"
      },
      {
         "bufferView" : 19,
         "componentType" : 5126,
         "count" : 584,
         "type" : "VEC2"
      },
      {
         "bufferView" : 20,
         "componentType" : 5125,
         "count" : 6276,
         "type" : "SCALAR"
      },
      {
         "bufferView" : 21,
         "componentType" : 5126,
         "count" : 3254,
         "max" : [ 0.109502635896206, -0.0385113619267941, 0.704929053783417 ],
         "min" : [ -0.109502635896206, -0.131495356559753, 0.210168913006783 ],
         "type" : "VEC3"
      },
      {
         "bufferView" : 22,
         "componentType" : 5126,
         "count" : 3254,
         "type" : "VEC3"
      },
      {
         "bufferView" : 23,
         "componentType" : 5126,
         "count" : 3254,
         "type" : "VEC2"
      },
      {
         "bufferView" : 24,
         "componentType" : 5125,
         "count" : 156,
         "type" : "SCALAR"
      },
      {
         "bufferView" : 25,
         "componentType" : 5126,
         "count" : 104,
         "max" : [ 0.0717179030179977, -0.013083353638649, 0.445561915636063 ],
         "min" : [ -0.0717179030179977, -0.0170637667179108, 0.367455095052719 ],
         "type" : "VEC3"
      },
      {
         "bufferView" : 26,
         "componentType" : 5126,
         "count" : 104,
         "type" : "VEC3"
      },
      {
         "bufferView" : 27,
         "componentType" : 5126,
         "count" : 104,
         "type" : "VEC2"
      },
      {
         "bufferView" : 28,
         "componentType" : 5125,
         "count" : 9768,
         "type" : "SCALAR"
      },
      {
         "bufferView" : 29,
         "componentType" : 5126,
         "count" : 2582,
         "max" : [ 0.0424955487251282, 0.103299133479595, 0.318823397159576 ],
         "min" : [ -0.0422291159629822, 0.0777829512953758, 0.304679542779922 ],
         "type" : "VEC3"
      },
      {
         "bufferView" : 30,
         "componentType" : 5126,
         "count" : 2582,
         "type" : "VEC3"
      },
      {
         "bufferView" : 31,
         "componentType" : 5126,
         "count" : 2582,
         "type" : "VEC2"
      }
   ],
   "asset" : {
      "extras" : {
         "GOOGLE_processor_version" : 294144208
      },
      "generator" : "Substance Painter 2018.2.3",
      "version" : "2.0"
   },
   "bufferViews" : [
      {
         "buffer" : 0,
         "byteLength" : 20064,
         "target" : 34963
      },
      {
         "buffer" : 0,
         "byteLength" : 16308,
         "byteOffset" : 20064,
         "target" : 34962
      },
      {
         "buffer" : 0,
         "byteLength" : 16308,
         "byteOffset" : 36372,
         "target" : 34962
      },
      {
         "buffer" : 0,
         "byteLength" : 10872,
         "byteOffset" : 52680,
         "target" : 34962
      },
      {
         "buffer" : 0,
         "byteLength" : 4179468,
         "byteOffset" : 63552,
         "target" : 34963
      },
      {
         "buffer" : 0,
         "byteLength" : 5223864,
         "byteOffset" : 4243020,
         "target" : 34962
      },
      {
         "buffer" : 0,
         "byteLength" : 5223864,
         "byteOffset" : 9466884,
         "target" : 34962
      },
      {
         "buffer" : 0,
         "byteLength" : 3482576,
         "byteOffset" : 14690748,
         "target" : 34962
      },
      {
         "buffer" : 0,
         "byteLength" : 38784,
         "byteOffset" : 18173324,
         "target" : 34963
      },
      {
         "buffer" : 0,
         "byteLength" : 45276,
         "byteOffset" : 18212108,
         "target" : 34962
      },
      {
         "buffer" : 0,
         "byteLength" : 45276,
         "byteOffset" : 18257384,
         "target" : 34962
      },
      {
         "buffer" : 0,
         "byteLength" : 30184,
         "byteOffset" : 18302660,
         "target" : 34962
      },
      {
         "buffer" : 0,
         "byteLength" : 225936,
         "byteOffset" : 18332844,
         "target" : 34963
      },
      {
         "buffer" : 0,
         "byteLength" : 236256,
         "byteOffset" : 18558780,
         "target" : 34962
      },
      {
         "buffer" : 0,
         "byteLength" : 236256,
         "byteOffset" : 18795036,
         "target" : 34962
      },
      {
         "buffer" : 0,
         "byteLength" : 157504,
         "byteOffset" : 19031292,
         "target" : 34962
      },
      {
         "buffer" : 0,
         "byteLength" : 10596,
         "byteOffset" : 19188796,
         "target" : 34963
      },
      {
         "buffer" : 0,
         "byteLength" : 7008,
         "byteOffset" : 19199392,
         "target" : 34962
      },
      {
         "buffer" : 0,
         "byteLength" : 7008,
         "byteOffset" : 19206400,
         "target" : 34962
      },
      {
         "buffer" : 0,
         "byteLength" : 4672,
         "byteOffset" : 19213408,
         "target" : 34962
      },
      {
         "buffer" : 0,
         "byteLength" : 25104,
         "byteOffset" : 19218080,
         "target" : 34963
      },
      {
         "buffer" : 0,
         "byteLength" : 39048,
         "byteOffset" : 19243184,
         "target" : 34962
      },
      {
         "buffer" : 0,
         "byteLength" : 39048,
         "byteOffset" : 19282232,
         "target" : 34962
      },
      {
         "buffer" : 0,
         "byteLength" : 26032,
         "byteOffset" : 19321280,
         "target" : 34962
      },
      {
         "buffer" : 0,
         "byteLength" : 624,
         "byteOffset" : 19347312,
         "target" : 34963
      },
      {
         "buffer" : 0,
         "byteLength" : 1248,
         "byteOffset" : 19347936,
         "target" : 34962
      },
      {
         "buffer" : 0,
         "byteLength" : 1248,
         "byteOffset" : 19349184,
         "target" : 34962
      },
      {
         "buffer" : 0,
         "byteLength" : 832,
         "byteOffset" : 19350432,
         "target" : 34962
      },
      {
         "buffer" : 0,
         "byteLength" : 39072,
         "byteOffset" : 19351264,
         "target" : 34963
      },
      {
         "buffer" : 0,
         "byteLength" : 30984,
         "byteOffset" : 19390336,
         "target" : 34962
      },
      {
         "buffer" : 0,
         "byteLength" : 30984,
         "byteOffset" : 19421320,
         "target" : 34962
      },
      {
         "buffer" : 0,
         "byteLength" : 20656,
         "byteOffset" : 19452304,
         "target" : 34962
      }
   ],
   "buffers" : [
      {
         "byteLength" : 19472960,
         "uri" : "DD101_001.bin"
      }
   ],
   "cameras" : [
      {
         "perspective" : {
            "yfov" : 0.7853981633974483,
            "znear" : 0.1000000014901161
         },
         "type" : "perspective"
      }
   ],
   "extensions" : {
      "KHR_lights_punctual" : {
         "lights" : [
            {
               "color" : [ 1, 0.9333333333333333, 0.8666666666666667 ],
               "intensity" : 0.25,
               "name" : "headLight",
               "type" : "directional"
            },
            {
               "color" : [ 1, 0.9333333333333333, 0.8666666666666667 ],
               "intensity" : 0.324999988079071,
               "name" : "keyLight",
               "type" : "directional"
            }
         ]
      }
   },
   "extensionsUsed" : [ "GOOGLE_backgrounds", "GOOGLE_camera_settings", "KHR_lights_punctual" ],
   "extras" : {
      "GOOGLE_initial_camera_motion" : {
         "motionPath" : "FULL_ROTATION"
      },
      "GOOGLE_lighting_rig" : {
         "disableShadows" : false
      }
   },
   "images" : [
      {
         "uri" : "DD108_body_baseColor.png"
      },
      {
         "uri" : "DD108_body_occlusionRoughnessMetallic.png"
      },
      {
         "uri" : "DD108_body_normal.png"
      },
      {
         "uri" : "DD108_body_ue_baseColor.png"
      },
      {
         "uri" : "DD108_body_ue_occlusionRoughnessMetallic.png"
      },
      {
         "uri" : "DD108_body_ue_normal.png"
      },
      {
         "uri" : "DD108_garasu_baseColor.png"
      },
      {
         "uri" : "DD108_garasu_occlusionRoughnessMetallic.png"
      },
      {
         "uri" : "DD108_garasu_normal.png"
      },
      {
         "uri" : "DD108_gurei_baseColor.png"
      },
      {
         "uri" : "DD108_gurei_occlusionRoughnessMetallic.png"
      },
      {
         "uri" : "DD108_gurei_normal.png"
      },
      {
         "uri" : "DD108_kin_baseColor.png"
      },
      {
         "uri" : "DD108_kin_occlusionRoughnessMetallic.png"
      },
      {
         "uri" : "DD108_kin_normal.png"
      },
      {
         "uri" : "DD108_kuro_baseColor.png"
      },
      {
         "uri" : "DD108_kuro_occlusionRoughnessMetallic.png"
      },
      {
         "uri" : "DD108_kuro_normal.png"
      },
      {
         "uri" : "DD108_siro_baseColor.png"
      },
      {
         "uri" : "DD108_siro_occlusionRoughnessMetallic.png"
      },
      {
         "uri" : "DD108_siro_normal.png"
      },
      {
         "uri" : "Default_baseColor.png"
      },
      {
         "uri" : "Default_occlusionRoughnessMetallic.png"
      },
      {
         "uri" : "Default_normal.png"
      }
   ],
   "materials" : [
      {
         "alphaMode" : "OPAQUE",
         "name" : "DD108_body",
         "normalTexture" : {
            "index" : 2
         },
         "occlusionTexture" : {
            "index" : 1
         },
         "pbrMetallicRoughness" : {
            "baseColorTexture" : {
               "index" : 0
            },
            "metallicRoughnessTexture" : {
               "index" : 1
            }
         }
      },
      {
         "alphaMode" : "OPAQUE",
         "name" : "DD108_body_ue",
         "normalTexture" : {
            "index" : 5
         },
         "occlusionTexture" : {
            "index" : 4
         },
         "pbrMetallicRoughness" : {
            "baseColorTexture" : {
               "index" : 3
            },
            "metallicRoughnessTexture" : {
               "index" : 4
            }
         }
      },
      {
         "alphaMode" : "OPAQUE",
         "name" : "DD108_garasu",
         "normalTexture" : {
            "index" : 8
         },
         "occlusionTexture" : {
            "index" : 7
         },
         "pbrMetallicRoughness" : {
            "baseColorTexture" : {
               "index" : 6
            },
            "metallicRoughnessTexture" : {
               "index" : 7
            }
         }
      },
      {
         "alphaMode" : "OPAQUE",
         "name" : "DD108_gurei",
         "normalTexture" : {
            "index" : 11
         },
         "occlusionTexture" : {
            "index" : 10
         },
         "pbrMetallicRoughness" : {
            "baseColorTexture" : {
               "index" : 9
            },
            "metallicRoughnessTexture" : {
               "index" : 10
            }
         }
      },
      {
         "alphaMode" : "OPAQUE",
         "name" : "DD108_kin",
         "normalTexture" : {
            "index" : 14
         },
         "occlusionTexture" : {
            "index" : 13
         },
         "pbrMetallicRoughness" : {
            "baseColorTexture" : {
               "index" : 12
            },
            "metallicRoughnessTexture" : {
               "index" : 13
            }
         }
      },
      {
         "alphaMode" : "OPAQUE",
         "name" : "DD108_kuro",
         "normalTexture" : {
            "index" : 17
         },
         "occlusionTexture" : {
            "index" : 16
         },
         "pbrMetallicRoughness" : {
            "baseColorTexture" : {
               "index" : 15
            },
            "metallicRoughnessTexture" : {
               "index" : 16
            }
         }
      },
      {
         "alphaMode" : "OPAQUE",
         "name" : "DD108_siro",
         "normalTexture" : {
            "index" : 20
         },
         "occlusionTexture" : {
            "index" : 19
         },
         "pbrMetallicRoughness" : {
            "baseColorTexture" : {
               "index" : 18
            },
            "metallicRoughnessTexture" : {
               "index" : 19
            }
         }
      },
      {
         "alphaMode" : "OPAQUE",
         "name" : "Default",
         "normalTexture" : {
            "index" : 23
         },
         "occlusionTexture" : {
            "index" : 22
         },
         "pbrMetallicRoughness" : {
            "baseColorTexture" : {
               "index" : 21
            },
            "metallicRoughnessTexture" : {
               "index" : 22
            }
         }
      }
   ],
   "meshes" : [
      {
         "name" : "Mesh",
         "primitives" : [
            {
               "attributes" : {
                  "NORMAL" : 2,
                  "POSITION" : 1,
                  "TEXCOORD_0" : 3
               },
               "indices" : 0,
               "material" : 4,
               "mode" : 4
            }
         ]
      },
      {
         "name" : "Mesh",
         "primitives" : [
            {
               "attributes" : {
                  "NORMAL" : 6,
                  "POSITION" : 5,
                  "TEXCOORD_0" : 7
               },
               "indices" : 4,
               "material" : 0,
               "mode" : 4
            }
         ]
      },
      {
         "name" : "Mesh",
         "primitives" : [
            {
               "attributes" : {
                  "NORMAL" : 10,
                  "POSITION" : 9,
                  "TEXCOORD_0" : 11
               },
               "indices" : 8,
               "material" : 7,
               "mode" : 4
            }
         ]
      },
      {
         "name" : "Mesh",
         "primitives" : [
            {
               "attributes" : {
                  "NORMAL" : 14,
                  "POSITION" : 13,
                  "TEXCOORD_0" : 15
               },
               "indices" : 12,
               "material" : 6,
               "mode" : 4
            }
         ]
      },
      {
         "name" : "Mesh",
         "primitives" : [
            {
               "attributes" : {
                  "NORMAL" : 18,
                  "POSITION" : 17,
                  "TEXCOORD_0" : 19
               },
               "indices" : 16,
               "material" : 1,
               "mode" : 4
            }
         ]
      },
      {
         "name" : "Mesh",
         "primitives" : [
            {
               "attributes" : {
                  "NORMAL" : 22,
                  "POSITION" : 21,
                  "TEXCOORD_0" : 23
               },
               "indices" : 20,
               "material" : 3,
               "mode" : 4
            }
         ]
      },
      {
         "name" : "Mesh",
         "primitives" : [
            {
               "attributes" : {
                  "NORMAL" : 26,
                  "POSITION" : 25,
                  "TEXCOORD_0" : 27
               },
               "indices" : 24,
               "material" : 2,
               "mode" : 4
            }
         ]
      },
      {
         "name" : "Mesh",
         "primitives" : [
            {
               "attributes" : {
                  "NORMAL" : 30,
                  "POSITION" : 29,
                  "TEXCOORD_0" : 31
               },
               "indices" : 28,
               "material" : 5,
               "mode" : 4
            }
         ]
      }
   ],
   "nodes" : [
      {
         "children" : [ 1, 3, 5, 7, 9, 11, 13, 15 ],
         "name" : "root",
         "scale" : [ 7506.66845703125, 7506.66845703125, 7506.66845703125 ],
         "translation" : [ 0, 1514.09204101563, -7.66845703125 ]
      },
      {
         "children" : [ 2 ],
         "name" : "Mesh"
      },
      {
         "mesh" : 0,
         "name" : "Mesh"
      },
      {
         "children" : [ 4 ],
         "name" : "Mesh"
      },
      {
         "mesh" : 1,
         "name" : "Mesh"
      },
      {
         "children" : [ 6 ],
         "name" : "Mesh"
      },
      {
         "mesh" : 2,
         "name" : "Mesh"
      },
      {
         "children" : [ 8 ],
         "name" : "Mesh"
      },
      {
         "mesh" : 3,
         "name" : "Mesh"
      },
      {
         "children" : [ 10 ],
         "name" : "Mesh"
      },
      {
         "mesh" : 4,
         "name" : "Mesh"
      },
      {
         "children" : [ 12 ],
         "name" : "Mesh"
      },
      {
         "mesh" : 5,
         "name" : "Mesh"
      },
      {
         "children" : [ 14 ],
         "name" : "Mesh"
      },
      {
         "mesh" : 6,
         "name" : "Mesh"
      },
      {
         "children" : [ 16 ],
         "name" : "Mesh"
      },
      {
         "mesh" : 7,
         "name" : "Mesh"
      },
      {
         "children" : [ 18 ]
      },
      {
         "children" : [ 19 ],
         "extras" : {
            "isTransformNode" : 1
         },
         "translation" : [ -42.47813390626284, 845.1791651790965, -614.3344833571749 ]
      },
      {
         "children" : [ 0 ],
         "translation" : [ 42.47813390626284, -845.1791651790965, 614.3344833571749 ]
      },
      {
         "camera" : 0,
         "children" : [ 21 ],
         "rotation" : [
            -0.154228453752823,
            -0.2093647217965079,
            -0.03346050126744398,
            0.9650183377402815
         ],
         "translation" : [ -8851.702568859029, 7827.646017036853, 18743.72360726496 ]
      },
      {
         "extensions" : {
            "KHR_lights_punctual" : {
               "light" : 0
            }
         },
         "extras" : {
            "isHeadLight" : 1
         },
         "name" : "headLightNode",
         "translation" : [ -10106.76822986574, 5053.384114932869, 5053.384114932869 ]
      },
      {
         "extensions" : {
            "KHR_lights_punctual" : {
               "light" : 1
            }
         },
         "extras" : {
            "isKeyLight" : 1
         },
         "name" : "keyLightNode",
         "rotation" : [ -0.7505326882858236, -0.3752663441429118, 0, 0.5439447166468927 ],
         "scale" : [ 0, 0, 10207.8359121644 ],
         "translation" : [ -10193.63671424473, 21302.49041826287, -11896.24012386671 ]
      }
   ],
   "samplers" : [
      {
         "magFilter" : 9729,
         "minFilter" : 9985,
         "wrapS" : 10497,
         "wrapT" : 10497
      }
   ],
   "scene" : 0,
   "scenes" : [
      {
         "extensions" : {
            "GOOGLE_backgrounds" : {
               "color" : [ 0.6196078431372549, 0.6196078431372549, 0.6196078431372549 ]
            },
            "GOOGLE_camera_settings" : {
               "pivot" : [ -37.95717952155792, 851.2071043586948, -612.6491577027191 ]
            }
         },
         "extras" : {
            "GOOGLE_camera_index" : {
               "cameraIndex" : 0,
               "nodeIndex" : 20
            },
            "GOOGLE_geometry_data" : {
               "stats" : {
                  "centroid" : [ 14.19919791966742, 886.8185939340843, -1688.404211702318 ],
                  "radius" : 10106.76822986574,
                  "stdev" : 4635.78009134949
               },
               "visualCenterPoint" : [ -42.47813390626284, 845.1791651790965, -614.3344833571749 ]
            },
            "GOOGLE_hemi_light" : {
               "groundColor" : [ 0.6196078431372549, 0.6196078431372549, 0.6196078431372549 ]
            }
         },
         "name" : "Scene",
         "nodes" : [ 17, 20, 22 ]
      }
   ],
   "textures" : [
      {
         "sampler" : 0,
         "source" : 0
      },
      {
         "sampler" : 0,
         "source" : 1
      },
      {
         "sampler" : 0,
         "source" : 2
      },
      {
         "sampler" : 0,
         "source" : 3
      },
      {
         "sampler" : 0,
         "source" : 4
      },
      {
         "sampler" : 0,
         "source" : 5
      },
      {
         "sampler" : 0,
         "source" : 6
      },
      {
         "sampler" : 0,
         "source" : 7
      },
      {
         "sampler" : 0,
         "source" : 8
      },
      {
         "sampler" : 0,
         "source" : 9
      },
      {
         "sampler" : 0,
         "source" : 10
      },
      {
         "sampler" : 0,
         "source" : 11
      },
      {
         "sampler" : 0,
         "source" : 12
      },
      {
         "sampler" : 0,
         "source" : 13
      },
      {
         "sampler" : 0,
         "source" : 14
      },
      {
         "sampler" : 0,
         "source" : 15
      },
      {
         "sampler" : 0,
         "source" : 16
      },
      {
         "sampler" : 0,
         "source" : 17
      },
      {
         "sampler" : 0,
         "source" : 18
      },
      {
         "sampler" : 0,
         "source" : 19
      },
      {
         "sampler" : 0,
         "source" : 20
      },
      {
         "sampler" : 0,
         "source" : 21
      },
      {
         "sampler" : 0,
         "source" : 22
      },
      {
         "sampler" : 0,
         "source" : 23
      }
   ]
}
